HIERARCHY
ROOT hip
{
	OFFSET 0.000000 0.000000 0.000000 
	CHANNELS 6 Xposition Yposition Zposition Xrotation Zrotation Yrotation
	JOINT abdomen
	{
		OFFSET 0.000000 3.402643 0.000000 
		CHANNELS 3 Xrotation Zrotation Yrotation
		JOINT chest
		{
			OFFSET 0.000000 8.438565 -0.680529 
			CHANNELS 3 Xrotation Zrotation Yrotation
			JOINT neck
			{
				OFFSET 0.000000 10.207942 -0.272212 
				CHANNELS 3 Xrotation Zrotation Yrotation
				JOINT head
				{
					OFFSET 0.000000 3.130431 0.000000 
					CHANNELS 3 Xrotation Zrotation Yrotation
					End Site
					{
						OFFSET 0.000000 3.130435 0.000000 
					}
				}
			}
			JOINT lCollar
			{
				OFFSET 3.470700 6.669187 -0.816635 
				CHANNELS 3 Yrotation Zrotation Xrotation
				JOINT lShldr
				{
					OFFSET 3.198488 0.000000 0.000000 
					CHANNELS 3 Zrotation Yrotation Xrotation
					JOINT lForeArm
					{
						OFFSET 10.139888 0.000000 0.000000 
						CHANNELS 3 Yrotation Zrotation Xrotation
						JOINT lHand
						{
							OFFSET 8.370511 0.000000 0.000000 
							CHANNELS 3 Zrotation Yrotation Xrotation
							End Site
							{
								OFFSET 4.083176 0.000000 0.000000 
							}
						}
					}
				}
			}
			JOINT rCollar
			{
				OFFSET -3.470700 6.669187 -0.816635 
				CHANNELS 3 Yrotation Zrotation Xrotation
				JOINT rShldr
				{
					OFFSET -3.198488 0.000000 0.000000 
					CHANNELS 3 Zrotation Yrotation Xrotation
					JOINT rForeArm
					{
						OFFSET -10.139888 0.000000 0.000000 
						CHANNELS 3 Yrotation Zrotation Xrotation
						JOINT rHand
						{
							OFFSET -8.370511 0.000000 0.000000 
							CHANNELS 3 Zrotation Yrotation Xrotation
							End Site
							{
								OFFSET -4.083176 0.000000 0.000000 
							}
						}
					}
				}
			}
		}
	}
	JOINT lThigh
	{
		OFFSET 5.308129 -1.633274 1.361059 
		CHANNELS 3 Xrotation Zrotation Yrotation
		JOINT lShin
		{
			OFFSET -2.041588 -20.007561 0.000000 
			CHANNELS 3 Xrotation Zrotation Yrotation
			JOINT lFoot
			{
				OFFSET 0.000000 -19.190928 -1.224953 
				CHANNELS 3 Xrotation Yrotation Zrotation
				End Site
				{
					OFFSET 0.000000 -2.449906 4.627600 
				}
			}
		}
	}
	JOINT rThigh
	{
		OFFSET -5.308129 -1.633274 1.361059 
		CHANNELS 3 Xrotation Zrotation Yrotation
		JOINT rShin
		{
			OFFSET 2.041588 -20.007561 0.000000 
			CHANNELS 3 Xrotation Zrotation Yrotation
			JOINT rFoot
			{
				OFFSET 0.000000 -19.190928 -1.224953 
				CHANNELS 3 Xrotation Yrotation Zrotation
				End Site
				{
					OFFSET 0.000000 -2.449906 4.627600 
				}
			}
		}
	}
}
MOTION
Frames: 15
Frame Time: 0.033333
0.088687 52.679062 -0.022067 -4.941406 -1.767578 160.976257 24.050295 -9.999280 -5.812474 -20.800781 5.517578 0.401330 51.063168 8.107644 2.471410 -56.894535 -5.117187 -14.560548 2.000000 -2.000000 0.000000 -82.089844 8.447267 25.634764 -40.917614 -2.134889 -1.602332 11.556260 61.996323 12.883978 -2.000000 2.000000 0.000000 78.994141 -21.357422 21.041367 52.998878 1.473538 -2.003700 -38.664040 -60.114174 43.885685 0.966560 0.956446 14.178816 8.573396 -5.366329 -1.117712 -6.604949 4.889827 -0.056889 2.621982 -15.339043 -57.918903 11.926953 4.580720 0.975918 2.683194 -3.835008 10.924214 
0.161044 52.675350 -0.040721 -4.941406 -1.767578 160.800476 24.050295 -9.999280 -5.812474 -20.800781 5.517578 0.401330 51.063168 8.107644 2.471410 -56.894535 -5.117187 -14.394533 2.000000 -2.000000 0.000000 -81.982422 8.720703 25.880390 -41.088352 -2.135404 -1.778684 12.385443 62.221813 13.029592 -2.000000 2.000000 0.000000 79.179688 -21.562500 20.986328 53.186298 1.634072 -2.072591 -37.858940 -59.788818 43.314217 0.984570 0.941882 14.363251 8.573208 -5.366219 -1.127450 -6.728884 5.343796 -0.424480 2.614905 -15.145368 -58.083820 11.926956 4.580713 0.975918 2.664209 -3.841829 10.921831 
0.234029 52.674831 -0.064813 -4.941406 -1.767578 160.800476 24.071331 -9.910509 -5.965092 -20.800781 5.517578 0.401330 51.063168 8.107644 2.471410 -56.894535 -5.117187 -14.394533 2.000000 -2.000000 0.000000 -81.845703 8.935546 25.742189 -41.259953 -2.126281 -1.622757 12.426073 62.407970 13.079176 -2.000000 2.000000 0.000000 78.994141 -21.933594 21.314714 53.538139 1.624892 -2.082904 -37.320290 -59.777863 42.558975 0.848633 1.100726 13.852825 8.755085 -5.731138 -0.881938 -6.715239 5.578012 -0.074737 2.614905 -15.145370 -58.083820 11.926956 4.580713 0.975918 2.459812 -4.226548 10.911323 
0.298715 52.671337 -0.108578 -5.126953 -1.767578 160.634460 24.071331 -9.910509 -5.965092 -20.791016 5.693359 0.430656 51.063168 8.107644 2.471410 -56.904297 -5.292969 -14.375001 2.000000 -2.000000 0.000000 -81.845703 8.925781 25.761719 -41.260494 -2.235231 -1.645721 12.917025 62.326698 13.423578 -2.000000 2.000000 0.000000 79.013672 -22.128906 21.152342 53.702564 1.455177 -2.024325 -36.781967 -59.767174 41.784294 0.857524 1.096950 14.028800 8.761688 -5.738958 -0.883291 -6.908031 5.586224 -0.029113 2.408861 -15.125597 -58.040680 11.932521 4.539717 0.952904 2.320691 -4.394388 11.028559 
0.345841 52.674507 -0.129441 -5.126953 -1.767578 160.634460 24.050295 -9.999280 -5.812474 -20.791016 5.693359 0.430656 51.063168 8.107644 2.471410 -56.904297 -5.292969 -14.375001 2.000000 -2.000000 0.000000 -81.796875 8.750000 25.966799 -41.084167 -2.243839 -1.625660 12.905057 62.512165 13.317270 -2.000000 2.000000 0.000000 79.023438 -22.314455 21.168167 53.702564 1.455177 -2.024325 -36.578506 -59.622395 41.716148 0.857524 1.096950 14.028800 8.761688 -5.738959 -0.883291 -6.981096 5.595852 -0.246199 2.408861 -15.125590 -58.040680 11.932521 4.539715 0.952904 2.320691 -4.394387 11.028560 
0.380085 52.660362 -0.132716 -5.126953 -1.767578 160.634460 23.895552 -9.910509 -5.965091 -20.791016 5.693359 0.430656 51.063168 8.107644 2.471410 -56.904297 -5.292969 -14.550784 2.000000 -2.000000 0.000000 -81.787109 8.740234 26.171875 -40.908386 -2.243839 -1.625660 12.905057 62.512165 13.317270 -2.000000 2.000000 0.000000 78.964844 -22.304688 21.162107 53.538139 1.624892 -2.082904 -37.332836 -59.513916 42.241798 0.956338 1.229398 14.711517 8.761853 -5.358220 -1.143643 -6.978176 5.480025 -1.143451 2.411480 -15.117379 -58.216106 12.118608 4.545598 0.958180 2.477475 -4.247335 10.904176 
0.413211 52.668777 -0.128666 -5.126953 -1.767578 160.634460 23.874514 -9.999279 -5.812475 -20.791016 5.693359 0.430656 51.063168 8.107644 2.471410 -56.738281 -5.312500 -14.560546 2.000000 -2.000000 0.000000 -81.933594 8.525390 26.308594 -40.908386 -2.243839 -1.625660 12.711993 62.548599 13.232584 -2.000000 2.000000 0.000000 78.769531 -22.294922 21.256060 53.362080 1.634072 -2.072592 -37.102085 -59.368011 41.909203 0.956338 1.229398 14.711517 8.761853 -5.358222 -1.143643 -7.129110 5.478130 -1.126221 2.395704 -14.909044 -58.379814 12.108435 4.530140 1.131391 2.280116 -4.242184 10.885160 
0.419273 52.671474 -0.120474 -5.126953 -1.767578 160.810242 23.874514 -9.999279 -5.812475 -20.791016 5.693359 0.430656 51.063168 8.107644 2.471410 -56.552734 -5.332031 -14.580987 2.000000 -2.000000 0.000000 -82.070313 8.320313 26.417429 -40.917591 -2.144638 -1.601760 12.426073 62.407970 13.079176 -2.000000 2.000000 0.000000 78.984375 -22.314451 20.953325 53.362080 1.634072 -2.072592 -37.237049 -59.059784 41.852638 0.974444 1.214922 14.896019 8.761483 -5.358406 -1.153400 -7.101150 5.588688 -1.034737 2.205250 -14.891640 -58.358009 12.108434 4.530142 1.131392 2.288691 -4.193576 10.736342 
0.445744 52.672195 -0.124292 -5.126953 -1.767578 160.810242 23.874514 -9.999279 -5.812475 -20.615236 5.683594 0.273438 51.063168 8.107644 2.471410 -56.582031 -5.507812 -14.746093 2.000000 -2.000000 0.000000 -82.177734 8.007813 26.005859 -40.742111 -2.243268 -1.615533 12.148349 62.267555 13.151245 -2.000000 2.000000 0.000000 78.974609 -22.480469 20.986328 53.362080 1.634072 -2.072592 -37.161072 -59.086266 41.493111 0.975984 1.191307 15.070834 8.761483 -5.358406 -1.153400 -7.353869 5.622066 -1.200459 2.207045 -14.873287 -58.544685 12.124036 4.544428 1.134175 2.277602 -4.197015 10.724813 
0.476636 52.660431 -0.151300 -5.126953 -1.767578 160.986023 23.699085 -10.002691 -5.803331 -20.615236 5.683594 0.273438 51.063168 8.107644 2.471410 -56.582031 -5.507812 -14.746093 2.000000 -2.000000 0.000000 -82.138672 7.812500 25.996092 -40.742111 -2.243268 -1.615533 12.106730 62.091175 13.101653 -2.000000 2.000000 0.000000 78.886719 -22.470703 21.386717 53.362080 1.634072 -2.072592 -36.965282 -58.941746 41.424591 1.043636 1.393448 15.093272 8.927340 -5.367957 -1.158327 -7.212030 5.386234 -1.153962 2.207046 -14.873287 -58.544685 12.124036 4.544433 1.134174 1.989731 -4.356553 10.635959 
0.506223 52.652298 -0.198223 -5.126953 -1.767578 160.986023 23.699085 -10.002691 -5.803331 -20.615236 5.683594 0.273438 51.063168 8.107644 2.471410 -56.582031 -5.507812 -14.746093 2.000000 -2.000000 0.000000 -82.138672 7.812500 25.996092 -40.566311 -2.253017 -1.614961 12.648458 62.039707 13.786330 -2.000000 2.000000 0.000000 78.691406 -22.451174 21.480646 53.362080 1.634072 -2.072592 -37.599384 -59.357658 41.892670 1.033099 1.371410 15.259013 8.931675 -5.360662 -1.157859 -7.420809 5.407944 -1.327949 2.207046 -14.873287 -58.544685 12.280934 4.554550 1.010929 2.214301 -4.252237 10.320589 
0.545008 52.647881 -0.261557 -5.126953 -1.767578 160.986023 23.699085 -10.002691 -5.803331 -20.605471 5.859375 0.292969 51.063168 8.107644 2.471410 -56.582031 -5.507812 -14.746093 2.000000 -2.000000 0.000000 -82.304688 7.822266 26.337889 -40.566311 -2.253017 -1.614961 12.652276 61.834591 13.531517 -2.000000 2.000000 0.000000 78.701172 -22.265627 21.269529 53.363182 1.763652 -2.113948 -37.858856 -59.250149 42.415409 1.033099 1.371410 15.259013 8.931675 -5.360663 -1.157859 -7.420810 5.407944 -1.327949 2.201813 -14.850883 -58.706276 12.268462 4.531574 1.008123 2.105750 -4.567906 10.498890 
0.586405 52.637070 -0.338254 -5.292969 -1.943359 160.996094 23.687878 -9.832730 -5.727381 -20.605471 5.859375 0.292969 51.063168 8.107644 2.471410 -56.582031 -5.507812 -14.560548 2.000000 -2.000000 0.000000 -82.304688 7.822266 26.337889 -40.566311 -2.253017 -1.614961 12.854604 61.798267 13.606161 -2.000000 2.000000 0.000000 78.496094 -22.060549 21.328125 53.362080 1.634072 -2.072592 -37.530342 -59.639019 42.103817 1.054095 1.356991 15.433578 8.923183 -5.355780 -1.156720 -7.589647 5.594957 -1.362866 2.201813 -14.850882 -58.706276 12.268462 4.531573 1.008123 2.057088 -4.445345 10.365620 
0.625633 52.626942 -0.406520 -5.292969 -1.943359 160.996094 23.512096 -9.832730 -5.727381 -20.605471 5.859375 0.292969 51.063168 8.107644 2.471410 -56.757813 -5.488281 -14.541017 2.000000 -2.000000 0.000000 -82.265625 7.636718 26.318357 -40.566311 -2.253017 -1.614961 12.477275 61.851788 13.221745 -2.000000 2.000000 0.000000 78.486336 -21.855471 21.490507 53.362080 1.634072 -2.072592 -38.014095 -59.892796 42.317955 1.054096 1.356991 15.433578 8.923184 -5.355780 -1.156720 -7.589645 5.594958 -1.362866 2.127121 -14.950362 -58.678810 12.268730 4.531667 0.998392 2.103785 -4.573058 10.497204 
0.667099 52.615246 -0.488660 -5.458984 -1.943359 160.995773 23.512096 -9.832730 -5.727381 -20.429688 5.859375 0.312500 51.063168 8.107644 2.471410 -56.757813 -5.488281 -14.541017 2.000000 -2.000000 0.000000 -82.255859 7.431641 26.095015 -40.389709 -2.153245 -1.581697 11.839190 61.755611 12.692898 -2.000000 2.000000 0.000000 78.740234 -21.699221 21.191404 53.363182 1.763652 -2.113948 -38.190342 -59.801708 42.470318 1.062567 1.343287 15.608844 8.923182 -5.355782 -1.156720 -7.611077 5.553611 -1.413192 2.125512 -14.773474 -58.690586 12.283834 4.530451 0.862677 1.928427 -4.668486 10.472496 
